<?xml version="1.0" encoding="utf-8"?>
<svg viewBox="0 0 500 500" xmlns="http://www.w3.org/2000/svg" xmlns:bx="https://boxy-svg.com">
  <path style="stroke: rgb(0, 0, 0); fill: rgb(6, 26, 51);" transform="matrix(1.3774839639663696, 0, -0.005382000468671322, 1.281477928161621, -380.27020263671875, -92.76473236083983)" d="M 363.875 192.5 L 381.125 192.5 L 384.765 218.847 A 45.825 45.825 0 0 1 395.048 223.106 L 416.252 207.05 L 428.45 219.248 L 412.394 240.452 A 45.825 45.825 0 0 1 416.653 250.735 L 443 254.375 L 443 271.625 L 416.653 275.265 A 45.825 45.825 0 0 1 412.394 285.548 L 428.45 306.752 L 416.252 318.95 L 395.048 302.894 A 45.825 45.825 0 0 1 384.765 307.153 L 381.125 333.5 L 363.875 333.5 L 360.235 307.153 A 45.825 45.825 0 0 1 349.952 302.894 L 328.748 318.95 L 316.55 306.752 L 332.606 285.548 A 45.825 45.825 0 0 1 328.347 275.265 L 302 271.625 L 302 254.375 L 328.347 250.735 A 45.825 45.825 0 0 1 332.606 240.452 L 316.55 219.248 L 328.748 207.05 L 349.952 223.106 A 45.825 45.825 0 0 1 360.235 218.847 Z M 372.5 241.85 A 21.15 21.15 0 0 0 372.5 284.15 A 21.15 21.15 0 0 0 372.5 241.85" bx:shape="cog 372.5 263 21.15 45.825 70.5 0.38 8 1@2320c8fd"/>
  <path style="stroke: rgb(0, 0, 0); fill: rgb(130, 191, 253);" transform="matrix(0.9560230374336244, 0, 0, 0.847705066204071, -55.4493293762207, -21.0230846405029)" d="M 179.082 207.5 L 203.918 207.5 L 209.159 245.432 A 65.975 65.975 0 0 1 223.963 251.564 L 254.491 228.448 L 272.052 246.009 L 248.936 276.537 A 65.975 65.975 0 0 1 255.068 291.341 L 293 296.582 L 293 321.418 L 255.068 326.659 A 65.975 65.975 0 0 1 248.936 341.463 L 272.052 371.991 L 254.491 389.552 L 223.963 366.436 A 65.975 65.975 0 0 1 209.159 372.568 L 203.918 410.5 L 179.082 410.5 L 173.841 372.568 A 65.975 65.975 0 0 1 159.037 366.436 L 128.509 389.552 L 110.948 371.991 L 134.064 341.463 A 65.975 65.975 0 0 1 127.932 326.659 L 90 321.418 L 90 296.582 L 127.932 291.341 A 65.975 65.975 0 0 1 134.064 276.537 L 110.948 246.009 L 128.509 228.448 L 159.037 251.564 A 65.975 65.975 0 0 1 173.841 245.432 Z M 191.5 278.55 A 30.45 30.45 0 0 0 191.5 339.45 A 30.45 30.45 0 0 0 191.5 278.55" bx:shape="cog 191.5 309 30.45 65.975 101.5 0.38 8 1@b5bb9e8e"/>
  <path d="M 287.16 214.84 L 287.16 222.95 L 256.17 264.31 L 259.82 264.31 Q 267.38 264.31 271.12 262.9 Q 274.85 261.5 278.03 257.93 Q 281.2 254.36 282.96 249.15 L 290.64 251.75 L 282.96 273.42 L 238.24 273.42 L 238.24 265.32 L 269.35 224.08 L 264.48 224.08 Q 259.53 224.08 256.5 225.26 Q 253.48 226.43 251.26 228.74 Q 249.03 231.05 244.87 238.44 L 237.48 235.17 L 246.38 214.84 Z M 285.95 214.84 L 314.51 214.84 L 314.51 222.95 L 311.9 222.95 Q 309.64 222.95 308.9 223.35 Q 308.17 223.75 307.81 224.61 Q 307.45 225.47 307.45 227.9 L 307.45 260.32 Q 307.45 262.97 307.75 263.72 Q 308.04 264.48 308.75 264.81 Q 309.64 265.32 311.4 265.32 L 314.51 265.32 L 314.51 273.42 L 285.95 273.42 L 285.95 265.32 L 288.26 265.32 Q 290.74 265.32 291.5 264.96 Q 292.25 264.6 292.61 263.83 Q 292.97 263.05 292.97 260.74 L 292.97 228.2 Q 292.97 225.47 292.61 224.61 Q 292.25 223.75 291.41 223.28 Q 290.82 222.95 288.56 222.95 L 285.95 222.95 Z M 359.83 242.18 L 388.42 242.18 L 388.42 250.37 L 386.28 250.37 Q 384.18 250.37 383.41 250.75 Q 382.63 251.12 382.25 251.94 Q 381.87 252.76 381.87 255.07 L 381.87 273.42 L 373.26 273.42 L 371.04 269.22 Q 367.09 271.83 362.85 273.13 Q 358.61 274.43 354.03 274.43 Q 346.01 274.43 339.42 270.52 Q 332.83 266.62 328.98 259.61 Q 325.14 252.59 325.14 243.9 Q 325.14 235.29 328.94 228.49 Q 332.74 221.69 339.57 217.76 Q 346.39 213.84 354.37 213.84 Q 358.23 213.84 362.07 214.82 Q 365.92 215.81 368.64 217.45 L 370.2 214.84 L 376.08 214.84 L 381.37 234.24 L 373.64 236.76 Q 369.69 230.38 367.41 228.07 Q 365.12 225.76 362.16 224.46 Q 359.2 223.16 356.38 223.16 Q 352.39 223.16 348.93 225.47 Q 345.47 227.78 343.45 232.21 Q 341.43 236.64 341.43 242.94 Q 341.43 249.86 343.64 254.95 Q 345.84 260.03 349.41 262.48 Q 352.98 264.94 357.26 264.94 Q 360.29 264.94 363 263.72 Q 365.71 262.5 366.71 260.99 Q 367.72 259.48 367.72 256.92 L 367.72 254.78 Q 367.72 252.55 367.43 251.96 Q 366.97 251.12 366.19 250.75 Q 365.41 250.37 363.14 250.37 L 359.83 250.37 Z M 409.06 214.84 L 422.2 214.84 L 439.8 260.07 Q 441.22 263.68 442.34 264.52 Q 443.45 265.36 446.43 265.32 L 446.43 273.42 L 418.72 273.42 L 418.72 265.32 L 420.39 265.28 Q 422.7 265.28 423.63 264.67 Q 424.55 264.06 424.55 263.18 Q 424.55 262.42 423.75 260.07 L 422.03 254.74 L 404.19 254.74 L 402 260.66 Q 401.33 262.55 401.33 263.13 Q 401.33 263.81 401.81 264.35 Q 402.3 264.9 403.39 265.15 Q 404.1 265.32 407.34 265.32 L 407.34 273.42 L 384.66 273.42 L 384.66 265.32 Q 386.84 265.32 387.85 264.94 Q 388.86 264.56 389.51 263.81 Q 390.16 263.05 390.96 260.99 Z M 407.25 246.38 L 418.97 246.38 L 413.26 230.25 Z" style="fill: rgb(255, 255, 255); stroke-linecap: round; stroke-width: 0px;"/>
</svg>