<?xml version="1.0" encoding="utf-8"?>
<svg viewBox="24.0348 270.6065 461.0543 136.0006" xmlns="http://www.w3.org/2000/svg" xmlns:bx="https://boxy-svg.com">
  <ellipse style="stroke: rgb(0, 0, 0); fill: rgb(46, 242, 255);" cx="107.027" cy="344.289" rx="20.076" ry="34.417" transform="matrix(0.9999999999999999, 0, 0, 0.9999999999999999, 0, -1.4210854715202004e-14)"/>
  <path style="stroke: rgb(0, 0, 0); fill: rgb(60, 82, 217);" transform="matrix(0.9560230374336242, 0, 0, 0.8763539791107178, -67.85714822794716, 62.03421875885452)" d="M 154.731 238 L 211.269 238 L 224.663 274.743 A 63 63 0 0 1 244.757 309.548 L 269.881 339.518 L 241.612 388.482 L 203.094 381.709 A 63 63 0 0 1 162.906 381.709 L 124.388 388.482 L 96.119 339.518 L 121.243 309.548 A 63 63 0 0 1 141.337 274.743 Z M 183 274.12 A 47.88 47.88 0 0 0 183 369.88 A 47.88 47.88 0 0 0 183 274.12" bx:shape="cog 183 322 47.88 63 84 0.38 3 1@a2be7291"/>
  <text style="fill: rgb(255, 255, 255); font-family: 'Bookman Old Style'; font-size: 113px; font-weight: 700; white-space: pre;" x="197.849" y="380.207" transform="matrix(0.9999999999999999, 0, 0, 0.9999999999999999, 0, -1.4210854715202004e-14)">ZIGA</text>
</svg>