<?xml version="1.0" encoding="utf-8"?>
<svg viewBox="0 0 500 500" xmlns="http://www.w3.org/2000/svg" xmlns:bx="https://boxy-svg.com">
  <ellipse style="stroke: rgb(0, 0, 0); fill: rgb(46, 242, 255);" cx="121.415" cy="256.214" rx="20.076" ry="34.417"/>
  <path style="stroke: rgb(0, 0, 0); fill: rgb(60, 82, 217);" transform="matrix(0.9560230374336243, 0, 0, 0.8763539791107178, -54.49330520629883, -25.01593208312988)" d="M 172.723 238 L 193.277 238 L 199.863 261.299 A 63 63 0 0 1 213.999 267.154 L 235.13 255.336 L 249.664 269.87 L 237.846 291.001 A 63 63 0 0 1 243.701 305.137 L 267 311.723 L 267 332.277 L 243.701 338.863 A 63 63 0 0 1 237.846 352.999 L 249.664 374.13 L 235.13 388.664 L 213.999 376.846 A 63 63 0 0 1 199.863 382.701 L 193.277 406 L 172.723 406 L 166.137 382.701 A 63 63 0 0 1 152.001 376.846 L 130.87 388.664 L 116.336 374.13 L 128.154 352.999 A 63 63 0 0 1 122.299 338.863 L 99 332.277 L 99 311.723 L 122.299 305.137 A 63 63 0 0 1 128.154 291.001 L 116.336 269.87 L 130.87 255.336 L 152.001 267.154 A 63 63 0 0 1 166.137 261.299 Z M 183 274.12 A 47.88 47.88 0 0 0 183 369.88 A 47.88 47.88 0 0 0 183 274.12" bx:shape="cog 183 322 47.88 63 84 0.38 8 1@6f010990"/>
  <text style="fill: rgb(255, 255, 255); font-family: 'Bookman Old Style'; font-size: 113px; font-weight: 700; white-space: pre;" x="212.237" y="298.279">ZIGA</text>
</svg>