<?xml version="1.0" encoding="utf-8"?>
<svg viewBox="0 0 500 500" xmlns="http://www.w3.org/2000/svg" xmlns:bx="https://boxy-svg.com">
  <path style="stroke: rgb(0, 0, 0); fill: rgb(6, 26, 51);" transform="matrix(1.3774839639663696, 0, -0.005382000468671322, 1.281477928161621, -380.27020263671875, -92.76473236083983)" d="M 363.875 192.5 L 381.125 192.5 L 384.765 218.847 A 45.825 45.825 0 0 1 395.048 223.106 L 416.252 207.05 L 428.45 219.248 L 412.394 240.452 A 45.825 45.825 0 0 1 416.653 250.735 L 443 254.375 L 443 271.625 L 416.653 275.265 A 45.825 45.825 0 0 1 412.394 285.548 L 428.45 306.752 L 416.252 318.95 L 395.048 302.894 A 45.825 45.825 0 0 1 384.765 307.153 L 381.125 333.5 L 363.875 333.5 L 360.235 307.153 A 45.825 45.825 0 0 1 349.952 302.894 L 328.748 318.95 L 316.55 306.752 L 332.606 285.548 A 45.825 45.825 0 0 1 328.347 275.265 L 302 271.625 L 302 254.375 L 328.347 250.735 A 45.825 45.825 0 0 1 332.606 240.452 L 316.55 219.248 L 328.748 207.05 L 349.952 223.106 A 45.825 45.825 0 0 1 360.235 218.847 Z M 372.5 241.85 A 21.15 21.15 0 0 0 372.5 284.15 A 21.15 21.15 0 0 0 372.5 241.85" bx:shape="cog 372.5 263 21.15 45.825 70.5 0.38 8 1@2320c8fd"/>
  <path style="stroke: rgb(0, 0, 0); fill: rgb(130, 191, 253);" transform="matrix(0.9560230374336244, 0, 0, 0.847705066204071, -55.4493293762207, -21.0230846405029)" d="M 179.082 207.5 L 203.918 207.5 L 209.159 245.432 A 65.975 65.975 0 0 1 223.963 251.564 L 254.491 228.448 L 272.052 246.009 L 248.936 276.537 A 65.975 65.975 0 0 1 255.068 291.341 L 293 296.582 L 293 321.418 L 255.068 326.659 A 65.975 65.975 0 0 1 248.936 341.463 L 272.052 371.991 L 254.491 389.552 L 223.963 366.436 A 65.975 65.975 0 0 1 209.159 372.568 L 203.918 410.5 L 179.082 410.5 L 173.841 372.568 A 65.975 65.975 0 0 1 159.037 366.436 L 128.509 389.552 L 110.948 371.991 L 134.064 341.463 A 65.975 65.975 0 0 1 127.932 326.659 L 90 321.418 L 90 296.582 L 127.932 291.341 A 65.975 65.975 0 0 1 134.064 276.537 L 110.948 246.009 L 128.509 228.448 L 159.037 251.564 A 65.975 65.975 0 0 1 173.841 245.432 Z M 191.5 278.55 A 30.45 30.45 0 0 0 191.5 339.45 A 30.45 30.45 0 0 0 191.5 278.55" bx:shape="cog 191.5 309 30.45 65.975 101.5 0.38 8 1@b5bb9e8e"/>
  <text style="fill: rgb(244, 244, 244); font-family: 'Bookman Old Style'; font-size: 86px; font-weight: 700; stroke-linecap: round; stroke-width: 0px; white-space: pre;" transform="matrix(1.0923789739608765, 0, 0, 1, -26.877401351928707, 2.842170943040401e-14)" x="236.138" y="273.422">ZIGA</text>
</svg>